<svg width="30" height="30" viewBox="0 0 30 30" fill="none" xmlns="http://www.w3.org/2000/svg">
<g clip-path="url(#clip0_6511_569)">
<g clip-path="url(#clip1_6511_569)">
<path d="M10.875 19.875C14.81 19.875 18 16.8529 18 13.125C18 9.39708 14.81 6.375 10.875 6.375C6.93997 6.375 3.75 9.39708 3.75 13.125C3.75 16.8529 6.93997 19.875 10.875 19.875Z" fill="#FDC040"/>
<path d="M10.9579 20.4343C15.2426 20.4343 18.7284 17.2099 18.7284 13.2464C18.7284 9.28303 15.2426 6.05859 10.9579 6.05859C6.67331 6.05859 3.1875 9.28303 3.1875 13.2464C3.1875 17.2099 6.67331 20.4343 10.9579 20.4343ZM10.9579 6.93834C14.7575 6.93834 17.8487 9.76813 17.8487 13.2464C17.8487 16.7248 14.7575 19.5545 10.9579 19.5545C7.15841 19.5545 4.06725 16.7248 4.06725 13.2464C4.06725 9.76813 7.15841 6.93834 10.9579 6.93834Z" fill="#3BB77E"/>
<path d="M13.3398 12.1311C13.3398 12.8457 13.9212 13.427 14.6358 13.427C15.3503 13.427 15.9317 12.8457 15.9317 12.1311C15.9317 11.4166 15.3503 10.8352 14.6358 10.8352C13.9212 10.8352 13.3398 11.4166 13.3398 12.1311ZM14.6357 11.715C14.8652 11.715 15.0518 11.9017 15.0518 12.1311C15.0518 12.3606 14.8652 12.5472 14.6357 12.5472C14.4062 12.5472 14.2195 12.3606 14.2195 12.1311C14.2195 11.9017 14.4063 11.715 14.6357 11.715Z" fill="#3BB77E"/>
<path d="M12.5381 11.2808C13.2526 11.2808 13.834 10.6994 13.834 9.98489C13.834 9.27033 13.2526 8.68896 12.5381 8.68896C11.8235 8.68896 11.2422 9.27033 11.2422 9.98489C11.2422 10.6994 11.8235 11.2808 12.5381 11.2808ZM12.5381 9.56868C12.7675 9.56868 12.9542 9.75539 12.9542 9.98482C12.9542 10.2143 12.7675 10.401 12.5381 10.401C12.3086 10.401 12.122 10.2143 12.122 9.98482C12.122 9.75539 12.3086 9.56868 12.5381 9.56868Z" fill="#3BB77E"/>
<path d="M7.28417 13.427C7.99877 13.427 8.58013 12.8457 8.58013 12.1311C8.58013 11.4166 7.99877 10.8352 7.28417 10.8352C6.56964 10.8352 5.98828 11.4166 5.98828 12.1311C5.98828 12.8457 6.56964 13.427 7.28417 13.427ZM7.28417 11.715C7.51367 11.715 7.70038 11.9017 7.70038 12.1311C7.70038 12.3606 7.51367 12.5472 7.28417 12.5472C7.05474 12.5472 6.86807 12.3606 6.86807 12.1311C6.86807 11.9017 7.05474 11.715 7.28417 11.715Z" fill="#3BB77E"/>
<path d="M9.38186 11.2808C10.0964 11.2808 10.6778 10.6994 10.6778 9.98489C10.6778 9.27033 10.0964 8.68896 9.38186 8.68896C8.6673 8.68896 8.08594 9.27033 8.08594 9.98489C8.08594 10.6994 8.6673 11.2808 9.38186 11.2808ZM9.38186 9.56868C9.61129 9.56868 9.79796 9.75539 9.79796 9.98482C9.79796 10.2143 9.61129 10.401 9.38186 10.401C9.1524 10.401 8.96572 10.2143 8.96572 9.98482C8.96572 9.75539 9.1524 9.56868 9.38186 9.56868Z" fill="#3BB77E"/>
<path d="M8.73718 13.0383C8.67605 13.3259 8.5127 13.5889 8.26479 13.7989C7.70795 14.2706 7.41695 14.9596 7.46634 15.6893C7.54329 16.8259 8.45923 17.7332 9.5969 17.7998C9.97209 17.8216 10.3487 17.7507 10.6863 17.5943C10.8568 17.5153 11.0605 17.5153 11.2311 17.5943C11.5287 17.7322 11.8566 17.8037 12.187 17.8037C12.2315 17.8037 12.2761 17.8024 12.3205 17.7998C13.4582 17.7332 14.3741 16.8258 14.451 15.6893C14.5004 14.9595 14.2094 14.2705 13.6526 13.7989C13.4047 13.5889 13.2413 13.3259 13.1803 13.0384C13.0742 12.5392 12.8097 12.1004 12.4154 11.7695C11.5849 11.0723 10.3324 11.0723 9.50192 11.7695C9.10768 12.1005 8.84327 12.5393 8.73718 13.0383ZM10.0676 12.4433C10.5756 12.0168 11.3417 12.0168 11.8497 12.4433C12.0923 12.6468 12.2548 12.9159 12.3196 13.2212C12.4216 13.7011 12.6859 14.133 13.0839 14.4702C13.4252 14.7593 13.6035 15.182 13.5732 15.6298C13.5261 16.3254 12.9655 16.8807 12.269 16.9215C12.0352 16.9352 11.8102 16.893 11.6008 16.796C11.3968 16.7015 11.1777 16.6542 10.9586 16.6542C10.7396 16.6542 10.5205 16.7015 10.3164 16.796C10.1071 16.893 9.88217 16.9353 9.64828 16.9215C8.95183 16.8807 8.3912 16.3254 8.3441 15.6299C8.31377 15.182 8.49215 14.7593 8.83344 14.4702C9.23143 14.133 9.49573 13.7012 9.59769 13.2212C9.66264 12.9159 9.82509 12.6469 10.0676 12.4433Z" fill="#3BB77E"/>
<path d="M28.2678 23.5504C29.2021 22.3584 29.7162 20.8755 29.7162 19.356C29.7162 15.6017 26.6618 12.5472 22.9074 12.5472C22.2055 12.5472 21.5198 12.6527 20.861 12.8605C20.8136 10.6857 20.7009 8.51377 20.522 6.35348C20.4581 5.58611 20.6255 4.83746 21.0063 4.18845C21.5238 3.3058 21.9872 2.10012 21.2557 1.36856C20.9421 1.05525 20.1383 0.601058 16.7922 0.275542C14.7035 0.0723754 12.4099 0 10.96 0C9.50999 0 7.21645 0.0723754 5.1277 0.275601C1.78154 0.601114 0.977787 1.05531 0.664122 1.36874C-0.0673143 2.10012 0.396087 3.3058 0.913625 4.18864C1.29433 4.83754 1.46178 5.58615 1.39779 6.35336C1.37298 6.65003 1.3484 6.96585 1.3206 7.34745C1.30289 7.58974 1.485 7.80052 1.72729 7.81819C1.96964 7.83596 2.18037 7.65379 2.19802 7.4115C2.22565 7.03312 2.24993 6.72019 2.2745 6.42664C2.35362 5.47755 2.14541 4.54969 1.67251 3.74352C1.64846 3.70247 1.62594 3.66229 1.60353 3.62217C2.93526 3.06141 7.28425 2.69572 10.96 2.69572C12.3591 2.69572 14.5792 2.76469 16.6142 2.95818C18.8616 3.17191 19.8669 3.43754 20.3151 3.6244C20.2931 3.66375 20.271 3.70317 20.2474 3.74346C19.7745 4.54969 19.5662 5.47747 19.6452 6.42637C20.1013 11.9359 20.1253 17.5219 19.7192 23.0371C18.7754 23.0368 17.8314 23.0443 16.8924 23.0597C16.7719 21.5632 15.5156 20.3825 13.9887 20.3825C12.3823 20.3825 11.0754 21.6893 11.0754 23.2957C11.0754 23.9975 11.3267 24.6667 11.7769 25.1913C11.6643 25.3225 11.5641 25.4627 11.4773 25.6102C8.84605 25.6296 6.18055 25.5011 3.55069 25.227C2.86313 25.1558 2.32324 24.6021 2.26694 23.9101C1.86588 19.0159 1.80436 14.0511 2.08406 9.15356C2.0979 8.91101 1.91251 8.70315 1.66999 8.68927C1.42752 8.67555 1.21961 8.86084 1.2057 9.10335C0.923652 14.0414 0.985707 19.0473 1.39005 23.9816C1.4806 25.0954 2.35116 25.9871 3.45972 26.102C5.94771 26.3613 8.467 26.4923 10.9609 26.4923C11.0198 26.4923 11.0785 26.4914 11.1373 26.4913C11.0969 26.6853 11.0754 26.8846 11.0754 27.0867C11.0754 28.6931 12.3822 29.9999 13.9886 29.9999C15.5155 29.9999 16.7718 28.8192 16.8923 27.3228C18.7425 27.3531 20.6117 27.3531 22.4614 27.3228C22.5819 28.8192 23.8383 29.9999 25.3652 29.9999C25.8339 29.9999 26.3004 29.8857 26.7142 29.6696C26.9296 29.5572 27.013 29.2914 26.9005 29.0761C26.788 28.8607 26.5222 28.7772 26.307 28.8898C26.0143 29.0426 25.6974 29.1202 25.3652 29.1202C24.2439 29.1202 23.3317 28.208 23.3317 27.0867C23.3317 27.0359 23.3344 26.9804 23.3402 26.9121C23.3507 26.788 23.308 26.6652 23.2229 26.5743C23.1377 26.4834 23.0181 26.4329 22.8934 26.4353C20.7594 26.476 18.5949 26.476 16.4604 26.4353C16.3365 26.4329 16.2162 26.4834 16.1309 26.5743C16.0458 26.6652 16.0031 26.788 16.0136 26.9121C16.0194 26.9799 16.0221 27.0354 16.0221 27.0867C16.0221 28.208 15.1099 29.1202 13.9887 29.1202C12.8674 29.1202 11.9552 28.208 11.9552 27.0867C11.9552 26.4846 12.2205 25.9164 12.6832 25.528C12.7828 25.4445 12.8403 25.3211 12.8403 25.1912C12.8403 25.0612 12.7828 24.9378 12.6832 24.8542C12.2205 24.4659 11.9552 23.8978 11.9552 23.2955C11.9552 22.1743 12.8674 21.2621 13.9887 21.2621C15.1099 21.2621 16.0221 22.1743 16.0221 23.2955C16.0221 23.3469 16.0194 23.4024 16.0136 23.4702C16.0031 23.5943 16.0458 23.7171 16.1309 23.808C16.2162 23.8989 16.3363 23.9497 16.4604 23.9471C18.5949 23.9063 20.7593 23.9063 22.8934 23.9471C23.0182 23.9497 23.1377 23.8989 23.2229 23.808C23.308 23.7171 23.3507 23.5943 23.3402 23.4702C23.3344 23.402 23.3317 23.3464 23.3317 23.2955C23.3317 22.1743 24.2439 21.2621 25.3652 21.2621C26.4867 21.2621 27.3992 22.1743 27.3992 23.2955C27.3992 23.8979 27.1338 24.4659 26.6707 24.8541C26.5711 24.9376 26.5135 25.0611 26.5135 25.1912C26.5135 25.3212 26.571 25.4447 26.6707 25.5282C27.1338 25.9164 27.3992 26.4844 27.3992 27.0867C27.3992 27.3435 27.352 27.5937 27.259 27.8301C27.1701 28.0563 27.2813 28.3116 27.5074 28.4005C27.7334 28.4894 27.9888 28.3782 28.0777 28.1522C28.2112 27.8127 28.279 27.4543 28.279 27.0868C28.279 26.3848 28.0276 25.7157 27.5772 25.1912C27.9728 24.7307 28.2147 24.1584 28.2678 23.5504ZM10.9601 1.8159C10.8805 1.8159 3.62025 1.82856 1.24805 2.82628C1.12688 2.43554 1.13556 2.14152 1.28618 1.99091C1.40518 1.87197 2.04008 1.45988 5.2129 1.1512C7.27034 0.951086 9.53069 0.879765 10.96 0.879765C12.3892 0.879765 14.6496 0.951086 16.707 1.1512C19.8798 1.45988 20.5147 1.87197 20.6336 1.99079C20.7844 2.14152 20.7931 2.43548 20.6719 2.82622C18.2997 1.82862 11.0397 1.8159 10.9601 1.8159ZM25.3653 20.3824C23.8384 20.3824 22.582 21.5631 22.4615 23.0596C21.8431 23.0494 21.2224 23.044 20.6011 23.0406C20.8255 19.9683 20.9182 16.8744 20.8773 13.7838C21.5257 13.5469 22.2072 13.427 22.9074 13.427C26.1767 13.427 28.8364 16.0868 28.8364 19.356C28.8364 20.3716 28.5729 21.3686 28.0828 22.2465C27.6607 21.1572 26.6021 20.3824 25.3653 20.3824Z" fill="#3BB77E"/>
</g>
</g>
<defs>
<clipPath id="clip0_6511_569">
<rect width="30" height="30" fill="white"/>
</clipPath>
<clipPath id="clip1_6511_569">
<rect width="30" height="30" fill="white"/>
</clipPath>
</defs>
</svg>
