<svg width="80" height="80" viewBox="0 0 80 80" fill="none" xmlns="http://www.w3.org/2000/svg">
<g clip-path="url(#clip0_6511_737)">
<g clip-path="url(#clip1_6511_737)">
<mask id="mask0_6511_737" style="mask-type:luminance" maskUnits="userSpaceOnUse" x="0" y="0" width="80" height="80">
<path d="M80 0H0V80H80V0Z" fill="white"/>
</mask>
<g mask="url(#mask0_6511_737)">
<path d="M52.5 50.5L50.5 55L52 58V59.5L52.5 61.5C53.1667 61.8333 54.6 62.5 55 62.5C55.4 62.5 56.5 62.8333 57 63C57 63.5 56.9 64.6 56.5 65C56.1 65.4 55.3333 65.5 55 65.5C54.6667 66.1667 54 67.6 54 68C54 68.5 53.5 70 53.5 70.5C53.5 70.9 52.5 72.6667 52 73.5L52.5 78C54 78.1667 57.1 78.5 57.5 78.5H65.5C68.1667 77.6667 73.5 75.9 73.5 75.5C73.5 75.1 75.5 74.3333 76.5 74L78.5 70L76.5 65.5L71 54.5L70 54C69.3333 54.1667 67.9 54.4 67.5 54C67 53.5 65.5 53.5 65.5 53C65.5 52.5 64.5 52.5 64.5 52C64.5 51.5 64 51 64 50.5V48.5C64 48 64.5 47.5 64.5 47C64.5 46.6 65.5 46.1667 66 46V44.5C65.6667 43.8333 65 42.4 65 42C65 41.5 63.5 40.5 63 40.5C62.5 40.5 61 40 60.5 40C60.1 40 58.6667 40.6667 58 41L56 44.5L52.5 50.5Z" fill="#FDC040"/>
<path d="M32.5 30L24 29.5L23.5 31.5V36L24 43C24.5 43.1667 25.7 43.6 26.5 44C27.5 44.5 30.5 44 31 44C31.5 44 38 43.5 38.5 43C39 42.5 39.5 41.5 40 41C40.5 40.5 40.5 39 40.5 38.5V34.5C40.5 33.5 40 32 40 31.5C40 31.1 39 30.3333 38.5 30H32.5Z" fill="#FDC040"/>
<path d="M79.4851 68.1252L71.685 52.6062C71.5203 52.2786 71.2117 52.0469 70.8512 51.9801C70.4906 51.9134 70.1195 52.0194 69.8486 52.2664C69.2979 52.7684 68.5809 53.045 67.8303 53.045C66.1717 53.045 64.8224 51.695 64.8224 50.0356C64.8224 48.6018 65.8421 47.3606 67.2473 47.0838C67.6067 47.0131 67.9123 46.7784 68.0734 46.4495C68.2346 46.1205 68.2325 45.7352 68.0681 45.4079L66.104 41.498C65.1614 39.6239 63.2726 38.4597 61.1749 38.4595C61.1747 38.4595 61.1751 38.4595 61.1749 38.4595C60.9721 38.4595 60.7718 38.4736 60.5735 38.495C60.5221 35.6001 60.4475 32.7015 60.3486 29.8575C60.2494 26.9842 59.4046 24.1778 57.9052 21.7415C57.5659 21.1902 56.8441 21.0184 56.293 21.3578C55.7419 21.697 55.57 22.4189 55.9092 22.97C57.1959 25.0608 57.9211 27.4705 58.0063 29.9388C58.1136 33.019 58.1924 36.1637 58.2434 39.298C57.4067 39.8222 56.7109 40.5725 56.2459 41.4967L50.5126 52.9045C48.293 49.4551 45.1853 46.7793 41.5598 46.7793C35.236 46.7793 30.487 54.9185 29.2811 61.1071H29.2053C28.5869 57.9336 27.0367 54.2481 24.8202 51.4092C24.8043 49.1762 24.804 46.933 24.8176 44.6852C26.0284 44.7093 27.242 44.7251 28.4589 44.7251C31.4995 44.7251 34.5525 44.6502 37.5813 44.5011C39.6346 44.4001 41.3011 42.845 41.5439 40.8036C41.8717 38.047 41.8717 35.2515 41.5439 32.4949C41.3011 30.4535 39.6348 28.8985 37.582 28.7975C33.4836 28.596 29.3333 28.5317 25.2248 28.6033C25.8357 23.7922 28.8169 19.6548 33.2508 17.561H49.8707C51.0362 18.1113 52.1238 18.8182 53.105 19.669C53.3267 19.8613 53.6 19.9555 53.8721 19.9555C54.2002 19.9555 54.5264 19.8187 54.7581 19.5515C55.182 19.0626 55.1294 18.3224 54.6404 17.8983C54.1125 17.4405 53.5565 17.02 52.9787 16.6344C53.9921 15.8386 54.6451 14.6035 54.6451 13.218C54.6451 11.2292 53.301 9.54964 51.474 9.03682V4.89271C51.4735 2.19487 49.2788 0 46.5808 0H36.5399C33.8421 0 31.6472 2.19487 31.6472 4.89271V9.03714C29.82 9.54996 28.4759 11.2295 28.4759 13.2183C28.4759 14.6036 29.1286 15.8385 30.1417 16.6343C28.3725 17.8143 26.8376 19.3285 25.6287 21.1049C23.8685 23.6914 22.8808 26.7181 22.7726 29.8575C22.5527 36.202 22.4494 42.6153 22.4638 48.9629C20.8235 47.6193 18.9563 46.7795 16.9264 46.7795C14.077 46.7795 11.1937 48.524 8.80761 51.6917C8.41807 52.2086 8.52151 52.9434 9.03855 53.3328C9.55558 53.7223 10.2902 53.6189 10.6796 53.1019C11.799 51.6159 14.099 49.1232 16.9266 49.1232C19.1289 49.1232 21.4425 50.6656 23.4415 53.4659C25.0243 55.6835 26.2384 58.4577 26.8137 61.1073H7.03821C7.33759 59.7323 7.81369 58.3074 8.4412 56.9204C8.70792 56.3307 8.4462 55.6364 7.8565 55.3696C7.26696 55.1028 6.57258 55.3646 6.3057 55.9543C5.53616 57.6554 4.97334 59.4166 4.64928 61.1071H3.0402C1.36377 61.1071 0 62.4709 0 64.1473C0 65.8236 1.36393 67.1875 3.0402 67.1875H3.61614C3.81067 68.9828 4.13865 70.7721 4.45943 72.5118C4.68803 73.7515 4.92444 75.0335 5.10413 76.2829C5.34757 77.97 6.69633 79.2826 8.38479 79.4753C11.4573 79.8245 14.1904 79.9992 16.9247 79.9992C19.6549 79.9992 22.3862 79.8252 25.4563 79.4769C26.0167 79.4131 26.5381 79.225 26.9961 78.9436C28.192 79.6366 29.5395 79.9997 30.9425 79.9997H41.5614L41.5584 79.9989C44.2934 79.9991 47.028 79.8245 50.1021 79.4752C50.9162 79.3823 51.6498 79.0272 52.2203 78.497C55.1197 79.498 58.1356 79.99 61.1382 79.99C67.2451 79.99 73.2941 77.9614 78.1813 74.0749C79.9585 72.6629 80.507 70.1607 79.4851 68.1252ZM33.991 4.89271C33.991 3.48723 35.1344 2.34378 36.5399 2.34378H46.5808C47.9863 2.34378 49.1297 3.48723 49.1297 4.89271V8.8751H33.991V4.89271ZM32.8191 11.2189H50.3016C51.4042 11.2189 52.3009 12.1158 52.3009 13.2181C52.3009 14.3206 51.404 15.2175 50.3016 15.2175H32.8191C31.7166 15.2175 30.8197 14.3206 30.8197 13.2181C30.8197 12.1158 31.7167 11.2189 32.8191 11.2189ZM37.4665 31.1388C38.3731 31.1833 39.109 31.8702 39.2162 32.7719C39.5221 35.3449 39.5221 37.9542 39.2162 40.527C39.109 41.4288 38.3729 42.1158 37.4659 42.1603C33.2697 42.3669 29.0276 42.4272 24.8368 42.3436C24.877 38.5428 24.959 34.7362 25.0827 30.9505C29.199 30.8749 33.3589 30.9369 37.4665 31.1388ZM58.3394 42.5499C58.8897 41.4563 59.9493 40.8034 61.1741 40.8034C62.3991 40.8036 63.4594 41.4569 64.0096 42.5508L65.3796 45.2777C63.6377 46.1779 62.4787 47.9976 62.4787 50.0357C62.4787 52.9875 64.8793 55.3889 67.8303 55.3889C68.6567 55.3889 69.4608 55.2002 70.1866 54.8438L76.7432 67.8886C76.7362 67.8942 76.7299 67.9005 76.7227 67.9061C73.4264 70.5279 69.4848 72.2815 65.3242 72.9774C61.5735 73.6048 57.7039 73.3654 54.0681 72.2929C54.3759 70.6218 54.6842 68.9077 54.8703 67.1875H55.4469C57.1233 67.1875 58.487 65.8237 58.487 64.1473C58.487 62.4709 57.1233 61.1071 55.4469 61.1071H53.8381C53.482 59.2798 52.8171 57.2827 51.8937 55.3749L58.3394 42.5499ZM35.0443 53.4663C37.0434 50.6656 39.3573 49.1232 41.5595 49.1232C43.7623 49.1232 46.0763 50.6656 48.0752 53.4663C49.6579 55.6836 50.8718 58.4579 51.447 61.1074H31.672C32.2472 58.4582 33.4613 55.6839 35.0443 53.4663ZM2.34378 64.1476C2.34378 63.7636 2.65628 63.4512 3.0402 63.4512H55.4469C55.8309 63.4512 56.1433 63.7636 56.1433 64.1476C56.1433 64.5315 55.8309 64.844 55.4469 64.844H3.0402C2.65613 64.8439 2.34378 64.5315 2.34378 64.1476ZM28.5308 77.1062C28.6325 76.8447 28.7081 76.5698 28.7494 76.2828C28.8589 75.5145 28.9889 74.599 29.1248 73.6221C29.1342 73.5559 29.1392 73.5193 29.2431 73.5193C29.3472 73.5193 29.3522 73.5559 29.3614 73.6212C29.4975 74.5992 29.6275 75.5146 29.7372 76.2842C29.8058 76.7606 29.9655 77.2056 30.1941 77.6056C29.6141 77.5279 29.0548 77.36 28.5308 77.1062ZM49.8368 77.1468C43.8859 77.8231 39.2479 77.8236 33.2952 77.1484C32.6572 77.0757 32.148 76.5832 32.0572 75.952C31.948 75.1859 31.8185 74.2732 31.6825 73.297C31.5075 72.0479 30.5042 71.1755 29.243 71.1757C27.9817 71.1757 26.9786 72.048 26.8035 73.298C26.6678 74.2732 26.5382 75.186 26.4292 75.9507C26.3382 76.5832 25.829 77.0757 25.1915 77.1484C19.2377 77.8236 14.5997 77.8231 8.64995 77.1468C8.01947 77.075 7.51525 76.5821 7.42384 75.9489C7.23759 74.6542 6.99696 73.349 6.76414 72.0869C6.4668 70.4747 6.16351 68.8192 5.97445 67.1877H52.5118C52.3224 68.8236 52.0184 70.4836 51.7204 72.1002C51.4885 73.3584 51.2487 74.6592 51.0624 75.9498C50.9712 76.5828 50.467 77.075 49.8368 77.1468ZM76.7227 72.2405C70.1609 77.4586 61.3082 79.0098 53.3595 76.4061C53.3667 76.3654 53.3764 76.3257 53.3823 76.2848C53.4621 75.7318 53.5539 75.1724 53.6501 74.6132C56.0986 75.3104 58.64 75.664 61.186 75.664C62.6991 75.664 64.2138 75.5395 65.7109 75.2892C70.0406 74.5649 74.1521 72.7918 77.649 70.1504C77.694 70.9393 77.3662 71.7293 76.7227 72.2405Z" fill="#3BB77E"/>
<path d="M62.2673 67.7179C63.057 68.8664 64.2467 69.6386 65.6171 69.8924C65.9378 69.9518 66.2592 69.9811 66.5782 69.9811C67.6235 69.9811 68.6437 69.6664 69.5237 69.0614C70.6723 68.2718 71.4445 67.0821 71.6982 65.7116C71.9521 64.3411 71.6568 62.9538 70.8673 61.8052C70.0776 60.6566 68.8879 59.8844 67.5174 59.6307C66.1465 59.3769 64.7596 59.6721 63.611 60.4616C62.4624 61.2513 61.6903 62.441 61.4365 63.8114C61.1824 65.1821 61.4776 66.5694 62.2673 67.7179ZM63.7409 64.2382C63.8807 63.4832 64.3062 62.8278 64.9388 62.3928C65.4235 62.0596 65.9854 61.8863 66.5612 61.8863C66.737 61.8863 66.9142 61.9025 67.0906 61.9352C67.8456 62.075 68.5009 62.5003 68.936 63.1332C69.371 63.7658 69.5335 64.53 69.3938 65.285C69.254 66.04 68.8285 66.6953 68.1959 67.1303C67.5631 67.5653 66.7987 67.7278 66.0442 67.5882C65.2892 67.4483 64.6338 67.023 64.1987 66.3902C63.7637 65.7574 63.601 64.9932 63.7409 64.2382Z" fill="#3BB77E"/>
<path d="M57.3464 60.6886C57.5801 60.7319 57.8145 60.7533 58.0472 60.7533C58.8092 60.7533 59.5529 60.5237 60.1945 60.0828C61.0318 59.507 61.5948 58.6397 61.7798 57.6406C61.965 56.6414 61.7497 55.63 61.174 54.7925C60.5984 53.955 59.7309 53.392 58.7318 53.207C56.6692 52.8253 54.6803 54.1925 54.2984 56.2551C53.9162 58.3178 55.2837 60.3067 57.3464 60.6886ZM56.6028 56.6819C56.7494 55.89 57.5131 55.3647 58.305 55.5117C58.6886 55.5828 59.0215 55.7989 59.2426 56.1205C59.4637 56.442 59.5462 56.8303 59.4753 57.2139C59.4042 57.5975 59.1881 57.9306 58.8665 58.1515C58.5451 58.3726 58.1572 58.4553 57.7731 58.3842C56.9812 58.2373 56.4562 57.4737 56.6028 56.6819Z" fill="#3BB77E"/>
</g>
</g>
</g>
<defs>
<clipPath id="clip0_6511_737">
<rect width="80" height="80" fill="white"/>
</clipPath>
<clipPath id="clip1_6511_737">
<rect width="80" height="80" fill="white"/>
</clipPath>
</defs>
</svg>
