<svg width="80" height="80" viewBox="0 0 80 80" fill="none" xmlns="http://www.w3.org/2000/svg">
<g clip-path="url(#clip0_6511_765)">
<g clip-path="url(#clip1_6511_765)">
<path d="M70 78C74.9706 78 79 73.9706 79 69C79 64.0294 74.9706 60 70 60C65.0294 60 61 64.0294 61 69C61 73.9706 65.0294 78 70 78Z" fill="#FDC040"/>
<path d="M2 35L3 50.5L12 59.5L13 55L14 38.5V23.5L12 21.5L10 20.5H5L2 22.5V26V35Z" fill="#FDC040"/>
<path d="M49.7571 31.367L50.4749 30.0004L48.1181 28.7624L47.4003 30.1297C46.0941 32.6212 43.9291 34.5547 41.307 35.5729V23.7451C44.39 22.7926 46.979 20.6731 48.5212 17.8384L49.1369 16.6987L46.793 15.4335L46.178 16.5719C45.1065 18.5412 43.3849 20.0776 41.307 20.9182V12.0715H38.6439V20.9182C36.566 20.0776 34.8443 18.5412 33.7735 16.5719L33.1585 15.4335L30.8146 16.6987L31.4297 17.8384C32.9719 20.6731 35.5608 22.7926 38.6439 23.7451V35.5729C36.0218 34.5547 33.8574 32.6212 32.5512 30.1297L31.8334 28.7624L29.4766 30.0004L30.1944 31.367C31.9622 34.7407 35.0043 37.2698 38.6439 38.392V50.2198C36.0218 49.2016 33.8574 47.268 32.5512 44.7766L31.8334 43.4093L29.4766 44.6472L30.1944 46.0139C31.9622 49.3876 35.0043 51.9167 38.6439 53.0389V71.9905H41.307V53.0389C44.9472 51.9167 47.9887 49.3876 49.7571 46.0139L50.4749 44.6472L48.1181 43.4093L47.4003 44.7766C46.0941 47.268 43.9291 49.2016 41.307 50.2198V38.392C44.9472 37.2698 47.9887 34.7407 49.7571 31.367Z" fill="#3BB77E"/>
<path d="M72.9976 59.3612C74.3154 58.2221 75.305 56.7508 75.8628 55.1L73.333 54.2587C72.8402 55.73 71.8812 57.0004 70.6004 57.8762V52.0176H67.9374V57.8762C66.6585 57.0017 65.7001 55.7339 65.2067 54.2652L62.6769 55.1072C63.2347 56.7573 64.2243 58.2286 65.5422 59.3677C60.714 61.1693 57.8683 66.169 58.7837 71.2403C59.6991 76.3109 64.1131 79.9999 69.2663 79.9999C74.4195 79.9999 78.8341 76.3109 79.7495 71.2403C80.6649 66.169 77.8185 61.1693 72.9904 59.3677L72.9976 59.3612ZM69.2689 77.3167C64.8569 77.3167 61.2797 73.7402 61.2797 69.3275C61.2797 64.9155 64.8569 61.3383 69.2689 61.3383C73.6815 61.3383 77.2581 64.9155 77.2581 69.3275C77.2542 73.7382 73.6796 77.3122 69.2689 77.3167Z" fill="#3BB77E"/>
<path d="M75.9135 1.58456C75.961 1.20552 75.8433 0.824525 75.5904 0.538453C75.3381 0.252382 74.9747 0.0878906 74.5924 0.0878906H70.5978C69.9574 0.0878906 69.4074 0.544305 69.289 1.17431L69.2663 1.29589L69.2442 1.17431C69.1258 0.544305 68.5758 0.0878906 67.9347 0.0878906H63.9401C63.5585 0.0878906 63.1951 0.252382 62.9421 0.538453C62.6899 0.824525 62.5722 1.20552 62.6197 1.58456L65.2717 22.8065V33.6428C65.1793 36.4138 64.7775 39.1659 64.0734 41.8478C63.9154 42.5402 63.8985 43.2587 64.024 43.9582C64.4265 46.1447 66.1364 47.8573 68.3222 48.263C68.6304 48.3163 68.9418 48.3436 69.2546 48.3442C70.6687 48.3462 72.0249 47.7857 73.0255 46.7871C74.0261 45.7878 74.5885 44.4322 74.5885 43.0181C74.5885 42.7593 74.5696 42.5012 74.5326 42.2457L74.2452 40.3498C73.6711 37.1673 73.3421 33.9457 73.2609 30.7131V22.8065L75.9135 1.58456ZM65.4492 2.75095H66.8295L70.5978 22.8481V27.0313L67.8912 22.2955L65.4492 2.75095ZM70.9788 45.0551C70.3689 45.5687 69.5608 45.7819 68.7767 45.6357C67.6968 45.4231 66.8535 44.5765 66.6461 43.496C66.5811 43.1429 66.5889 42.7808 66.6689 42.431C67.4198 39.5586 67.8444 36.6101 67.9347 33.6428V27.7373L70.6609 32.5069C70.8358 35.2701 71.155 38.0216 71.6166 40.7516L71.9014 42.6332C71.9202 42.7593 71.93 42.8874 71.9293 43.0155C71.9293 43.8022 71.5815 44.5492 70.9788 45.0551ZM71.6634 14.0943L70.5783 8.30724L70.655 8.3222L71.7031 2.75095H73.084L71.6634 14.0943Z" fill="#3BB77E"/>
<path d="M61.2792 22.7239C61.2941 19.1526 59.252 15.8914 56.0317 14.3459C55.4037 14.0638 55.1052 13.3408 55.3516 12.6978C56.8308 8.76691 55.4986 4.33215 52.0976 1.86738C48.6966 -0.597381 44.0674 -0.482953 40.7926 2.1463C40.3166 2.53575 39.6327 2.53575 39.1574 2.1463C37.1978 0.564459 34.6797 -0.15397 32.1798 0.156157C29.3419 0.505294 26.8219 2.13785 25.3421 4.58506C23.863 7.03162 23.5886 10.0224 24.5983 12.6978C24.8447 13.3408 24.5456 14.0638 23.9176 14.3459C21.354 15.5903 19.501 17.9394 18.8886 20.7227C18.2755 23.5054 18.9711 26.4155 20.7753 28.6216C21.1297 29.0663 21.1297 29.6969 20.7753 30.1423C17.9673 33.5732 17.9673 38.5086 20.7753 41.9395C21.1264 42.4056 21.1108 43.0513 20.7383 43.4999C18.5043 46.265 18.0382 50.06 19.5355 53.2835C21.0328 56.507 24.2336 58.5986 27.7873 58.6753L29.5382 70.9257C30.282 76.1179 34.7298 79.974 39.9746 79.974C45.2202 79.974 49.6679 76.1179 50.4117 70.9257L52.1626 58.6753C55.717 58.5986 58.9184 56.5064 60.4158 53.2816C61.9124 50.0561 61.4443 46.2605 59.2091 43.496C58.8365 43.0474 58.8209 42.4011 59.1714 41.9356C61.9801 38.5047 61.9801 33.5693 59.1714 30.1377C58.8177 29.693 58.8177 29.0624 59.1714 28.6176C60.5315 26.9539 61.2759 24.8727 61.2792 22.7239ZM57.1142 31.8288C58.0843 33.0179 58.6148 34.5049 58.6161 36.0393C58.622 37.5756 58.0901 39.0658 57.1129 40.251C55.9576 41.6931 55.968 43.7476 57.1383 45.1779C58.7461 47.1733 59.066 49.9144 57.9607 52.2264C56.8555 54.5383 54.5214 56.0103 51.9584 56.0122C51.701 56.0044 51.4435 55.9797 51.1893 55.9394C50.8415 55.8913 50.4897 55.9843 50.2102 56.1962C49.9312 56.4088 49.7485 56.7235 49.7017 57.0707L47.7766 70.5512C47.2194 74.432 43.8951 77.3135 39.9746 77.3135C36.0548 77.3135 32.7299 74.432 32.1733 70.5512L30.2547 57.0779C30.1214 56.4101 29.5291 55.9336 28.8484 55.9459C28.7886 55.9459 28.7294 55.9498 28.6703 55.9576C26.5533 56.193 24.4533 55.3887 23.0353 53.7991C20.8547 51.3707 20.7623 47.7175 22.8182 45.1818C23.9884 43.7515 23.9988 41.6976 22.8435 40.2549C21.8624 39.0697 21.3286 37.5782 21.3332 36.0393C21.3351 34.5049 21.865 33.0179 22.8351 31.8288C23.9962 30.4043 23.9962 28.3595 22.8351 26.9344C21.5471 25.359 21.051 23.2811 21.4892 21.2936C21.9268 19.3067 23.2505 17.6293 25.0814 16.7418C26.9486 15.8556 27.8225 13.6841 27.0884 11.7524C26.6827 10.6855 26.5611 9.5315 26.7341 8.40347C27.1983 5.46473 29.5434 3.18266 32.4945 2.80037C34.2812 2.57411 36.0834 3.08514 37.4865 4.21577C38.9428 5.37566 41.0071 5.37566 42.4635 4.21577C43.8652 3.08319 45.6675 2.57021 47.4554 2.79516C50.4059 3.17941 52.751 5.45953 53.2172 8.39826C53.3888 9.5263 53.2666 10.6797 52.8615 11.7466C52.1275 13.6789 53.0007 15.8504 54.8679 16.7359C56.6988 17.6241 58.0225 19.3015 58.4607 21.2884C58.8983 23.2753 58.4022 25.3538 57.1142 26.9292C55.9504 28.355 55.9504 30.403 57.1142 31.8288Z" fill="#3BB77E"/>
<path d="M0.281483 25.6892L2.51089 74.7173C2.64028 77.6645 5.06733 79.9869 8.01647 79.9869C10.9663 79.9869 13.3927 77.6645 13.5227 74.7173L15.7515 25.6892C15.8406 23.8714 15.1761 22.0977 13.9141 20.7864C13.7594 20.6238 13.5786 20.5003 13.4109 20.3553L14.6742 0.170343L12.0111 0.0052013L10.8278 18.9821C10.3447 18.8508 9.84863 18.7747 9.348 18.7546V0.087772H6.68494V18.7546C6.21162 18.7721 5.74155 18.8404 5.28319 18.9581L4.02187 0L1.3588 0.175544L2.69034 20.1485L2.87563 20.1368C2.60712 20.3345 2.35355 20.5516 2.11689 20.7864C0.855577 22.0984 0.191761 23.872 0.281483 25.6892ZM4.04463 22.627C4.79622 21.8351 5.84103 21.3884 6.93265 21.3923H9.10029C10.1919 21.391 11.2368 21.837 11.9909 22.6257C12.7458 23.4143 13.145 24.478 13.0949 25.5683L12.4948 38.7022H8.01647V41.3653H12.3732L11.4038 62.6698H8.01647V65.3329H11.2829L10.8623 74.5977C10.7959 76.1217 9.54175 77.3225 8.01647 77.3225C6.49184 77.3225 5.23703 76.1217 5.17136 74.5977L4.14475 52.0176H8.01647V49.3545H4.02187L3.17666 30.713H8.01647V28.05H3.05508L2.94195 25.5683C2.88799 24.4773 3.28719 23.413 4.04463 22.627Z" fill="#3BB77E"/>
<path d="M63.9414 69.3274C63.9407 70.6381 64.4238 71.9027 65.2982 72.8786L67.2825 71.1023C66.6902 70.4405 66.4672 69.527 66.6876 68.6668C66.9074 67.806 67.542 67.1123 68.3794 66.8164L67.4925 64.3049C65.3665 65.0597 63.9446 67.0707 63.9414 69.3274Z" fill="#3BB77E"/>
</g>
</g>
<defs>
<clipPath id="clip0_6511_765">
<rect width="80" height="80" fill="white"/>
</clipPath>
<clipPath id="clip1_6511_765">
<rect width="80" height="80" fill="white"/>
</clipPath>
</defs>
</svg>
