<svg width="30" height="30" viewBox="0 0 30 30" fill="none" xmlns="http://www.w3.org/2000/svg">
<g clip-path="url(#clip0_6511_553)">
<g clip-path="url(#clip1_6511_553)">
<mask id="mask0_6511_553" style="mask-type:luminance" maskUnits="userSpaceOnUse" x="0" y="0" width="30" height="30">
<path d="M30 0H0V30H30V0Z" fill="white"/>
</mask>
<g mask="url(#mask0_6511_553)">
<path d="M8.4375 21.375C7.5375 21.225 7.06249 21.5625 6.9375 21.75L6.75 21.9375C6.5625 22.1875 6.1875 22.725 6.1875 22.875V24C6.1875 24.1875 6.1875 24.75 6.375 25.125C6.5625 25.5 6.5625 25.6875 6.75 25.875C6.9375 26.0625 7.125 26.25 7.3125 26.25C7.5 26.25 8.4375 26.4375 8.625 26.4375H10.6875C11.25 26.4375 11.4375 26.25 11.8125 26.25C12.1875 26.25 12.5625 26.0625 12.5625 25.875C12.5625 25.6875 12.75 25.5 12.9375 25.3125C13.125 25.125 12.9375 24.75 13.125 24.4408C13.3125 24.1315 13.125 24 13.125 23.8125V22.875C13.125 22.6875 12.9375 22.5 12.9375 22.3125C12.9375 22.125 12.5625 21.9375 12.375 21.75C12.225 21.6 11.8125 21.4375 11.625 21.375C10.9375 21.4375 9.3375 21.525 8.4375 21.375Z" fill="#FDC040"/>
<path d="M25.125 11.625C22.425 12.675 17.25 12.0625 15 11.625L14.4375 12L13.5 13.5L12.9375 14.8125C13.5375 14.9625 15.3125 16.5 16.125 17.25L16.6875 18.375C18.0375 18.525 18.375 19.6875 18.375 20.25L18.5625 24.1875C21.1125 24.9375 27 23.75 29.625 23.0625C29.775 22.7625 29.1875 19.5625 28.875 18C28.125 15.75 26.0625 12.8125 25.125 11.625Z" fill="#FDC040"/>
<path d="M27.7858 14.5942C26.8902 12.9574 26 11.8998 25.6793 11.5417V9.12584L29.8396 5.70978C29.9386 5.62837 29.9973 5.50784 30.0001 5.37963C30.0029 5.25142 29.9495 5.12846 29.854 5.04288L26.7063 2.22149C26.5255 2.05953 26.2477 2.07476 26.0857 2.25541C25.9236 2.43612 25.9389 2.71399 26.1196 2.87601L28.886 5.35555L25.6795 7.98847V6.19121C25.6795 5.9485 25.4828 5.7517 25.24 5.7517C24.9972 5.7517 24.8005 5.9485 24.8005 6.19121L24.8003 11.3416C21.6624 11.8495 18.4866 11.8494 15.3488 11.3415V6.19121C15.3488 5.9485 15.1521 5.7517 14.9093 5.7517C14.6665 5.7517 14.4698 5.9485 14.4698 6.19121V7.98862L11.2631 5.35555L14.6841 2.28881C15.1874 1.83751 15.8373 1.64994 16.4628 1.72424C16.5916 2.27751 16.8874 3.438 17.3416 4.59412C18.088 6.49383 18.9586 7.62955 19.9292 7.96957C19.9763 7.98603 20.0254 7.99432 20.0745 7.99432C20.1236 7.99432 20.1727 7.98603 20.2197 7.96957C21.1903 7.62955 22.061 6.49383 22.8076 4.59415C23.2611 3.44023 23.5565 2.28278 23.6858 1.72817C24.073 1.68187 24.4729 1.73367 24.8446 1.89282C25.0679 1.98839 25.3261 1.88485 25.4216 1.66178C25.5172 1.43864 25.4137 1.18035 25.1906 1.08484C24.0616 0.601481 22.7455 0.823503 21.8372 1.65023L21.4316 2.01939C20.6578 2.72395 19.4914 2.72395 18.7179 2.01939L18.3124 1.65023C17.115 0.560115 15.3028 0.553376 14.0973 1.63447L10.295 5.04299C10.1995 5.12857 10.1461 5.2516 10.149 5.37974C10.1517 5.50795 10.2103 5.62848 10.3094 5.70989L14.4697 9.12599V11.5414C14.1816 11.8621 13.4412 12.7377 12.652 14.0803C11.9836 13.7242 11.2768 13.3725 10.5608 13.0166C9.93513 12.7054 9.30494 12.3921 8.7 12.0738C9.29122 11.3335 9.7473 10.4954 9.94713 9.51295C10.2525 8.01153 9.8058 6.67038 8.72148 5.83334C7.69353 5.03984 6.27791 4.86295 5.19877 5.39317C4.6203 5.67738 3.64989 6.41497 3.64989 8.16138C3.64989 9.26684 4.35195 10.3119 5.79626 11.3563C6.24802 11.683 6.75596 11.9994 7.29656 12.3082C6.62632 12.9674 5.85716 13.5542 5.13048 14.1084C3.56604 15.3016 2.08174 16.4347 2.04336 17.9612C1.08625 18.1907 0.347768 18.9888 0.219208 19.9941C-0.0730693 22.2828 -0.0730693 24.6038 0.219208 26.8927C0.36687 28.0468 1.31876 28.9287 2.48271 28.9897C4.8165 29.1114 7.16666 29.1723 9.5169 29.1723C11.8671 29.1723 14.2174 29.1114 16.5512 28.9897C17.7154 28.9287 18.667 28.0467 18.814 26.8927C18.9016 26.2084 18.9623 25.5212 18.9975 24.8329C19.3551 24.8436 19.7156 24.8493 20.0745 24.8493C25.8116 24.8493 29.5547 23.507 29.7113 23.4498C29.8847 23.3865 30.0001 23.2216 30.0001 23.037C30.0002 19.404 28.796 16.4405 27.7858 14.5942ZM18.1262 2.66898C19.2367 3.68088 20.9123 3.68088 22.0235 2.6691L22.429 2.30001C22.5114 2.225 22.5985 2.15697 22.6894 2.09592C22.5367 2.67813 22.3026 3.4765 21.9897 4.27252C21.2572 6.13664 20.5655 6.83516 20.0746 7.07838C19.5838 6.83516 18.8922 6.13664 18.1598 4.27252C17.847 3.47638 17.6128 2.67748 17.4601 2.09503C17.5506 2.15615 17.6378 2.22436 17.7209 2.29995L18.1262 2.66898ZM4.52906 8.16112C4.52906 7.20614 4.89472 6.52169 5.58656 6.18176C5.87591 6.03959 6.20655 5.97063 6.5469 5.97063C7.11562 5.97063 7.7112 6.16334 8.18463 6.52882C8.66002 6.89576 9.40923 7.74862 9.0861 9.33745C8.90895 10.2084 8.47556 10.9661 7.90998 11.6454C6.01061 10.581 4.52906 9.451 4.52906 8.16112ZM2.52854 18.775C3.31191 18.7344 4.09556 18.7004 4.85778 18.674C5.10037 18.6656 5.29016 18.4622 5.28172 18.2196C5.27328 17.977 5.07142 17.7879 4.82733 17.7956C4.20573 17.8171 3.56991 17.8439 2.93168 17.875C3.04488 16.8054 4.26896 15.8708 5.66373 14.8071C6.48307 14.182 7.35288 13.5186 8.10048 12.7504C8.77395 13.1093 9.47711 13.459 10.1696 13.8033C10.8628 14.1481 11.5617 14.4956 12.2244 14.8492C11.7891 15.6764 11.3609 16.639 11.0065 17.7235C9.52815 17.7071 8.05222 17.7135 6.58732 17.7456C6.34462 17.751 6.15225 17.952 6.15757 18.1947C6.1629 18.4374 6.36288 18.6317 6.60652 18.6243C9.88263 18.5524 13.2132 18.6032 16.5056 18.775C17.2449 18.8134 17.8491 19.3727 17.9424 20.1053C18.0041 20.5876 18.0516 21.0714 18.0864 21.5561C18.0508 22.0424 18.0026 22.5253 17.9424 22.9924C17.8492 23.7244 17.2447 24.2834 16.5049 24.3218C15.5098 24.3738 14.5102 24.4143 13.5247 24.4438C13.5458 23.8233 13.5321 23.2001 13.4824 22.583C13.4152 21.7484 12.7381 21.0847 11.9075 21.0393C10.4855 20.9614 9.04342 20.9614 7.62172 21.0393C6.7911 21.0847 6.11407 21.7484 6.04683 22.583C5.99673 23.2048 5.9832 23.8328 6.00498 24.4581C4.84766 24.4273 3.68089 24.3822 2.52854 24.3218C1.78894 24.2835 1.18446 23.7244 1.09129 22.9922C1.03234 22.5306 0.984003 22.0493 0.947204 21.5613C0.982012 21.075 1.02948 20.5894 1.09129 20.1053C1.18493 19.3728 1.78941 18.8134 2.52854 18.775ZM12.9978 15.2756C14.4216 16.0903 15.5719 16.9426 15.9585 17.8692C14.6186 17.8052 13.2738 17.7608 11.9293 17.7367C12.2461 16.8193 12.619 15.9944 12.9978 15.2756ZM12.6062 25.1242C12.5741 25.5227 12.2531 25.8394 11.8595 25.8609C10.4694 25.937 9.05985 25.937 7.66965 25.8609C7.27605 25.8394 6.95501 25.5227 6.92287 25.1242C6.85683 24.3045 6.85683 23.4733 6.92287 22.6536C6.95501 22.2551 7.27605 21.9384 7.66968 21.9168C8.36471 21.8788 9.06465 21.8598 9.76455 21.8598C10.4645 21.8598 11.1644 21.8788 11.8595 21.9168C12.2531 21.9384 12.5741 22.2551 12.6062 22.6536C12.6723 23.4733 12.6723 24.3045 12.6062 25.1242ZM16.5055 28.1118C11.8683 28.3536 7.16587 28.3536 2.52883 28.1118C1.78958 28.073 1.18493 27.5134 1.09129 26.7811C0.994376 26.022 0.931443 25.2593 0.900975 24.4954C1.31032 24.9058 1.86681 25.1676 2.48283 25.1996C3.67005 25.2618 4.87278 25.308 6.06491 25.339C6.1938 26.1047 6.83958 26.6958 7.62165 26.7386C8.33265 26.7775 9.04863 26.797 9.76455 26.797C10.4805 26.797 11.1965 26.7775 11.9074 26.7386C12.6943 26.6955 13.343 26.0974 13.4663 25.325C14.4856 25.295 15.5206 25.2534 16.5505 25.1996C17.1669 25.1676 17.7236 24.9057 18.133 24.4951C18.1025 25.2591 18.0394 26.022 17.9424 26.7813C17.8491 27.5135 17.2447 28.073 16.5055 28.1118ZM27.6789 23.1138C27.5885 21.7927 27.4214 20.4763 27.1806 19.1934C27.1358 18.9549 26.9064 18.7979 26.6676 18.8426C26.4291 18.8874 26.2719 19.1171 26.3168 19.3556C26.5593 20.6477 26.7244 21.975 26.8101 23.3063C26.4718 23.3757 26.0881 23.4477 25.6634 23.5177C25.6103 21.7504 25.4217 19.9906 25.1007 18.2792C25.0559 18.0406 24.8262 17.8837 24.5877 17.9283C24.3492 17.973 24.1921 18.2027 24.2368 18.4412C24.5558 20.1421 24.7409 21.8924 24.7882 23.6499C23.4778 23.8298 21.8775 23.9703 20.0745 23.9703C19.7259 23.9703 19.3757 23.9648 19.0284 23.9544C19.0532 22.6318 18.9821 21.3076 18.8141 19.9942C18.6823 18.9593 17.9039 18.1441 16.9057 17.9426C16.583 16.5997 15.2043 15.521 13.4271 14.5068C14.1295 13.3179 14.7867 12.516 15.0736 12.187C16.7335 12.4632 18.4041 12.6017 20.0748 12.6017C21.7453 12.6017 23.4158 12.4633 25.0756 12.187C25.4054 12.5641 26.2217 13.5612 27.029 15.0426C27.954 16.7399 29.0512 19.4301 29.1179 22.721C28.8321 22.8112 28.342 22.9555 27.6789 23.1138Z" fill="#3BB77E"/>
<path d="M11.527 22.5834C10.94 22.556 10.3467 22.5421 9.76347 22.5421C9.18019 22.5421 8.58687 22.556 7.99984 22.5834C7.77567 22.5939 7.5954 22.7716 7.58172 22.9957C7.54568 23.5883 7.54568 24.1894 7.58172 24.7821C7.59537 25.0062 7.77567 25.1839 7.99984 25.1944C8.58638 25.2218 9.17978 25.2358 9.76347 25.2358C10.3471 25.2358 10.9404 25.2219 11.527 25.1944C11.7512 25.1839 11.9314 25.0062 11.9451 24.7821C11.9811 24.1894 11.9811 23.5884 11.9451 22.9957C11.9315 22.7717 11.7512 22.5939 11.527 22.5834ZM11.0862 24.333C10.2028 24.3647 9.324 24.3647 8.44077 24.333C8.43135 24.0374 8.43135 23.7405 8.44077 23.4449C9.32457 23.4131 10.2024 23.4131 11.0862 23.4449C11.0956 23.7405 11.0956 24.0374 11.0862 24.333Z" fill="#3BB77E"/>
</g>
</g>
</g>
<defs>
<clipPath id="clip0_6511_553">
<rect width="30" height="30" fill="white"/>
</clipPath>
<clipPath id="clip1_6511_553">
<rect width="30" height="30" fill="white"/>
</clipPath>
</defs>
</svg>
