<svg width="30" height="30" viewBox="0 0 30 30" fill="none" xmlns="http://www.w3.org/2000/svg">
<g clip-path="url(#clip0_6511_536)">
<g clip-path="url(#clip1_6511_536)">
<mask id="mask0_6511_536" style="mask-type:luminance" maskUnits="userSpaceOnUse" x="0" y="0" width="30" height="30">
<path d="M30 0H0V30H30V0Z" fill="white"/>
</mask>
<g mask="url(#mask0_6511_536)">
<path d="M24.1875 13.3125H12.9375V14.0625L13.125 14.4375L14.0625 15.375L14.8125 15.75L15.1875 16.3125L15 17.0625L13.6875 17.625L12.9375 18.9375L12.75 22.875L13.3125 27.1875L13.6875 28.5L14.4375 29.25C14.625 29.3125 15.075 29.4375 15.375 29.4375C15.75 29.4375 17.4375 29.625 17.8125 29.625H19.875H21.1875L20.8125 28.875C20.6875 28.5625 20.4375 27.825 20.4375 27.375C20.4375 26.925 20.3125 25.6875 20.25 25.125V22.3125C20.25 22.0125 20.625 19.8125 20.8125 18.75V18.1875C20.8125 18 21.375 18 21.5625 17.8125C21.75 17.625 22.3125 17.625 22.5 17.625C22.6875 17.625 23.25 17.4375 23.4375 17.4375C23.625 17.4375 23.25 17.25 23.0625 17.0625C22.875 16.875 23.0625 16.875 23.0625 16.6875C23.0625 16.5 23.0625 16.125 22.875 15.9375C22.725 15.7875 23.1875 15.5 23.4375 15.375C23.625 15.3125 24 15.15 24 15C24 14.85 24.375 14.6875 24.5625 14.625L24.9375 14.0625V13.5L24.1875 13.3125Z" fill="#FDC040"/>
<path d="M2.83594 23.0973C2.83594 24.0365 3.60006 24.8007 4.53927 24.8007C5.4785 24.8007 6.24264 24.0365 6.24264 23.0973C6.24264 22.158 5.4785 21.3939 4.53927 21.3939C3.60006 21.3939 2.83594 22.158 2.83594 23.0973ZM5.36379 23.0973C5.36379 23.5519 4.99396 23.9218 4.53931 23.9218C4.0847 23.9218 3.7149 23.5519 3.7149 23.0973C3.7149 22.6427 4.08474 22.2728 4.53931 22.2728C4.99389 22.2728 5.36379 22.6427 5.36379 23.0973Z" fill="#3BB77E"/>
<path d="M6.70432 20.7492C7.44378 20.7492 8.04539 20.1476 8.04539 19.4082C8.04539 18.6687 7.44378 18.0671 6.70432 18.0671C5.96486 18.0671 5.36328 18.6687 5.36328 19.4082C5.36328 20.1476 5.96486 20.7492 6.70432 20.7492ZM6.70432 18.946C6.95921 18.946 7.16651 19.1533 7.16651 19.4081C7.16651 19.6629 6.95921 19.8703 6.70432 19.8703C6.44951 19.8703 6.24217 19.6629 6.24217 19.4081C6.24217 19.1533 6.44954 18.946 6.70432 18.946Z" fill="#3BB77E"/>
<path d="M11.3814 26.2491C11.3814 25.5096 10.7798 24.908 10.0403 24.908C9.30087 24.908 8.69922 25.5096 8.69922 26.2491C8.69922 26.9885 9.30087 27.5901 10.0403 27.5901C10.7798 27.5901 11.3814 26.9885 11.3814 26.2491ZM9.57818 26.2491C9.57818 25.9942 9.78548 25.7869 10.0404 25.7869C10.2953 25.7869 10.5026 25.9942 10.5026 26.2491C10.5026 26.5039 10.2953 26.7112 10.0404 26.7112C9.78548 26.7112 9.57818 26.5039 9.57818 26.2491Z" fill="#3BB77E"/>
<path d="M29.0637 18.8348C28.9371 17.9143 28.1419 17.2201 27.2139 17.2201H26.9026L27.2026 16.4401C27.2897 16.2136 27.1767 15.9593 26.9501 15.8722C26.7235 15.785 26.4693 15.8982 26.3823 16.1247L25.961 17.2201H24.1323C24.0703 17.1904 24.0076 17.1625 23.9438 17.1387C23.4869 16.9684 23.2553 16.7031 23.2553 16.3505C23.2553 16.0218 23.8109 15.7552 24.0502 15.6557C24.7602 15.3594 25.2691 14.7328 25.4115 13.9792C25.7064 12.4143 25.8404 10.7399 25.8941 9.88054C25.9214 9.43429 25.8203 8.99771 25.602 8.61802C24.4547 6.62325 22.3765 5.265 21.6814 4.84924V3.44391H21.7044C21.9471 3.44391 22.1438 3.24715 22.1438 3.00446V1.42424C22.1438 0.638906 21.5049 0 20.7195 0H17.2392C16.4539 0 15.8149 0.638906 15.8149 1.42424V3.00446C15.8149 3.24715 16.0116 3.44391 16.2544 3.44391H16.2774V4.84905C15.8288 5.11736 14.804 5.77868 13.8253 6.74981V6.44149C14.3258 6.1707 14.6666 5.64086 14.6666 5.03291C14.6666 4.15042 13.9487 3.43254 13.0662 3.43254H6.12251C5.24006 3.43254 4.52216 4.1505 4.52216 5.03291C4.52216 5.64101 4.86311 6.17092 5.36385 6.44167V7.78624C4.76231 8.13716 3.12821 9.18022 1.68868 10.9095C1.43004 11.221 1.26522 11.5991 1.21202 12.003C1.14047 12.5465 1.03325 13.4339 0.928834 14.5743C0.906687 14.816 1.08469 15.0299 1.32639 15.052C1.33999 15.0532 1.35352 15.0539 1.36694 15.0539C1.59153 15.0539 1.78319 14.8826 1.80405 14.6545C1.90718 13.5283 2.01282 12.6533 2.08337 12.1178C2.10633 11.9435 2.16458 11.7777 2.25317 11.6296H12.212C12.2895 12.3606 12.3978 13.1843 12.5473 13.9789C12.689 14.7325 13.1979 15.3594 13.909 15.6558C14.1477 15.7551 14.7029 16.0216 14.7029 16.3504C14.7029 16.7033 14.4715 16.9685 14.0149 17.1387C13.1949 17.445 12.6167 18.2005 12.542 19.0634C12.369 21.0537 12.2406 24.9051 13.3247 28.3368C13.416 28.6259 13.5584 28.8873 13.7398 29.1128C13.6554 29.118 13.5708 29.1212 13.4859 29.1212H5.7024C3.5778 29.1212 1.79163 27.4644 1.636 25.3495C1.43502 22.6177 1.44469 19.6053 1.66483 16.396C1.68141 16.1538 1.4986 15.9441 1.25649 15.9275C1.01456 15.9107 0.804556 16.0936 0.787973 16.3358C0.565024 19.5865 0.555417 22.6408 0.759499 25.4139C0.851491 26.6648 1.40924 27.8237 2.32999 28.6774C3.24991 29.5302 4.44761 30 5.7024 30H13.486C13.9106 30 14.331 29.9461 14.7381 29.8402C15.0076 29.9436 15.2994 29.9997 15.6024 29.9997L27.2139 30C28.1419 30 28.9371 29.3058 29.0637 28.3852C29.4993 25.2167 29.4993 22.0035 29.0637 18.8348ZM28.4705 25.2708C28.1204 25.4849 27.7222 25.5976 27.3071 25.5976C26.0754 25.5976 25.0735 24.5958 25.0735 23.3646C25.0735 22.133 26.0755 21.131 27.3071 21.131C27.7109 21.131 28.0992 21.2376 28.4416 21.4403C28.5226 22.7158 28.5325 23.9946 28.4705 25.2708ZM25.0169 9.82624C24.9749 10.4978 24.8827 11.6792 24.7008 12.9028H13.2583C13.0767 11.6802 12.9839 10.4984 12.9414 9.82676C12.9247 9.55253 12.9858 9.28627 13.1187 9.05603C13.1723 8.9628 13.2285 8.87107 13.2867 8.78074H24.672C24.7302 8.87107 24.7864 8.96284 24.8401 9.05606C24.9725 9.28624 25.0335 9.55271 25.0169 9.82624ZM6.24277 6.63334H12.9464V7.60417H6.24277V6.63334ZM16.6938 1.42424C16.6938 1.12353 16.9385 0.878906 17.2392 0.878906H20.7195C21.0202 0.878906 21.2649 1.12353 21.2649 1.42424V2.565H16.6938V1.42424ZM20.8026 3.44391V4.66376H17.1563V3.44391H20.8026ZM16.8327 5.54269H21.126C21.4971 5.7594 22.8915 6.61897 24.0073 7.90189H13.9514C15.0672 6.61875 16.4621 5.75914 16.8327 5.54269ZM6.12251 4.31145H13.0662C13.464 4.31145 13.7877 4.63511 13.7877 5.03291C13.7877 5.4306 13.4643 5.75408 13.0667 5.75437H6.12195C5.72434 5.75408 5.40101 5.43052 5.40101 5.03291C5.40101 4.63511 5.72468 4.31145 6.12251 4.31145ZM3.01547 10.7507C4.28366 9.45053 5.5698 8.67938 5.91634 8.48321H12.437C12.4101 8.52773 12.3831 8.57216 12.3572 8.61731C12.1382 8.99677 12.0369 9.43354 12.0643 9.88132C12.0791 10.1163 12.1001 10.4127 12.1286 10.7507H3.01547ZM27.2139 29.1211H22.3565L22.0483 29.1208C21.5598 29.1179 21.1419 28.7513 21.0751 28.2656C21.0059 27.7619 20.9477 27.2549 20.9022 26.7588C20.8799 26.5171 20.666 26.3389 20.4243 26.3614C20.1826 26.3836 20.0047 26.5975 20.027 26.8392C20.0737 27.3483 20.1335 27.8684 20.2044 28.3852C20.2413 28.6536 20.3354 28.9025 20.4727 29.1207H15.6024C14.9394 29.1207 14.3609 28.6993 14.1629 28.072C13.1246 24.7853 13.2503 21.0647 13.4176 19.1392C13.4632 18.6124 13.8184 18.1503 14.3222 17.9621C15.1227 17.6636 15.5819 17.0761 15.5819 16.3503C15.5819 15.9167 15.3502 15.3033 14.2469 14.8444C13.8103 14.6624 13.4978 14.2781 13.4111 13.8164C13.4089 13.8049 13.4068 13.7932 13.4047 13.7817H24.5542C24.5521 13.7931 24.55 13.8046 24.5478 13.816C24.4605 14.278 24.1479 14.6624 23.7122 14.8443C22.608 15.3036 22.3763 15.9168 22.3763 16.3504C22.3763 16.6719 22.4668 16.966 22.6368 17.2201H22.0541C21.1261 17.2201 20.3309 17.9143 20.2043 18.8348C19.9206 20.8946 19.821 22.9932 19.9081 25.0725C19.9184 25.315 20.1255 25.503 20.3656 25.4931C20.6081 25.483 20.7965 25.2782 20.7863 25.0357C20.7014 23.0086 20.7985 20.9627 21.075 18.9546C21.1422 18.4669 21.563 18.099 22.0541 18.099H27.2139C27.705 18.099 28.1259 18.4669 28.193 18.9546C28.2607 19.4472 28.3164 19.941 28.3626 20.4354C28.0273 20.3146 27.6717 20.2521 27.3071 20.2521C25.5908 20.2521 24.1946 21.6483 24.1946 23.3646C24.1946 25.0805 25.5908 26.4765 27.3071 26.4765C27.6877 26.4765 28.0581 26.4086 28.4061 26.2771C28.3541 26.9413 28.2839 27.6044 28.193 28.2654C28.1259 28.7532 27.705 29.1211 27.2139 29.1211Z" fill="#3BB77E"/>
</g>
</g>
</g>
<defs>
<clipPath id="clip0_6511_536">
<rect width="30" height="30" fill="white"/>
</clipPath>
<clipPath id="clip1_6511_536">
<rect width="30" height="30" fill="white"/>
</clipPath>
</defs>
</svg>
