<svg width="25" height="25" viewBox="0 0 25 25" fill="none" xmlns="http://www.w3.org/2000/svg">
<g clip-path="url(#clip0_6511_104)">
<mask id="mask0_6511_104" style="mask-type:luminance" maskUnits="userSpaceOnUse" x="0" y="0" width="25" height="25">
<path d="M24.4453 0.366516H0.445312V24.3665H24.4453V0.366516Z" fill="white"/>
</mask>
<g mask="url(#mask0_6511_104)">
<path d="M21.4453 24.3665H19.4453V19.3235C19.4445 18.5395 19.1327 17.7879 18.5784 17.2335C18.024 16.6791 17.2723 16.3673 16.4883 16.3665H8.40231C7.6183 16.3673 6.86664 16.6791 6.31227 17.2335C5.7579 17.7879 5.4461 18.5395 5.44531 19.3235V24.3665H3.44531V19.3235C3.44689 18.0093 3.96966 16.7494 4.89893 15.8201C5.8282 14.8909 7.08811 14.3681 8.40231 14.3665H16.4883C17.8025 14.3681 19.0624 14.8909 19.9917 15.8201C20.921 16.7494 21.4437 18.0093 21.4453 19.3235V24.3665Z" fill="#253D4E"/>
<path d="M12.4453 12.3665C11.2587 12.3665 10.0986 12.0146 9.11189 11.3553C8.12519 10.696 7.35616 9.75898 6.90203 8.66262C6.44791 7.56626 6.32909 6.35986 6.5606 5.19598C6.79211 4.03209 7.36355 2.96299 8.20267 2.12388C9.04178 1.28476 10.1109 0.713318 11.2748 0.481807C12.4387 0.250296 13.6451 0.369116 14.7414 0.823242C15.8378 1.27737 16.7749 2.0464 17.4342 3.0331C18.0934 4.01979 18.4453 5.17983 18.4453 6.36652C18.4437 7.95733 17.8111 9.48253 16.6862 10.6074C15.5614 11.7323 14.0362 12.3649 12.4453 12.3665ZM12.4453 2.36652C11.6542 2.36652 10.8809 2.60111 10.2231 3.04064C9.56523 3.48017 9.05254 4.10488 8.74979 4.83579C8.44704 5.56669 8.36783 6.37096 8.52217 7.14688C8.67651 7.9228 9.05747 8.63554 9.61688 9.19495C10.1763 9.75436 10.8891 10.1353 11.665 10.2897C12.4409 10.444 13.2452 10.3648 13.9761 10.062C14.707 9.75929 15.3317 9.2466 15.7712 8.5888C16.2107 7.931 16.4453 7.15764 16.4453 6.36652C16.4453 5.30565 16.0239 4.28824 15.2738 3.53809C14.5236 2.78795 13.5062 2.36652 12.4453 2.36652Z" fill="#253D4E"/>
</g>
</g>
<defs>
<clipPath id="clip0_6511_104">
<rect width="25" height="25" fill="white"/>
</clipPath>
</defs>
</svg>
